<svg width="14" height="13" viewBox="0 0 14 13" fill="none" xmlns="http://www.w3.org/2000/svg">
<path d="M12.9462 10.4753C13.4738 11.0031 13.4738 11.8559 12.9462 12.3837C12.683 12.6469 12.3376 12.7791 11.9919 12.7791C11.6464 12.7791 11.3009 12.6469 11.0378 12.3837L6.98247 8.32814L2.92716 12.3837C2.66398 12.6469 2.31853 12.7791 1.97307 12.7791C1.62736 12.7791 1.2819 12.6469 1.01873 12.3837C0.491152 11.8559 0.491152 11.0031 1.01873 10.4753L5.07429 6.41997L1.01873 2.36466C0.491152 1.83683 0.491152 0.984056 1.01873 0.456231C1.54656 -0.0713477 2.39933 -0.0713477 2.92716 0.456231L6.98247 4.51179L11.0378 0.456231C11.5656 -0.0713477 12.4184 -0.0713477 12.9462 0.456231C13.4738 0.984056 13.4738 1.83683 12.9462 2.36466L8.89064 6.41997L12.9462 10.4753Z" fill="#F44336"/>
</svg>
